<?xml version="1.0" standalone="no"?>
<!DOCTYPE svg PUBLIC "-//W3C//DTD SVG 20010904//EN"
 "http://www.w3.org/TR/2001/REC-SVG-20010904/DTD/svg10.dtd">
<svg version="1.0" xmlns="http://www.w3.org/2000/svg"
 width="260.000000pt" height="260.000000pt" viewBox="0 0 260.000000 260.000000"
 preserveAspectRatio="xMidYMid meet">
<g transform="translate(0.000000,260.000000) scale(0.100000,-0.100000)"
fill="#000000" stroke="none">
<path d="M1150 2593 c-291 -44 -519 -149 -720 -330 -286 -257 -434 -604 -425
-993 2 -80 6 -158 10 -175 21 -100 28 -128 51 -200 61 -191 163 -356 318 -510
197 -196 395 -303 671 -362 113 -24 379 -24 495 1 350 75 641 270 832 558 92
139 173 335 194 473 3 22 10 60 14 85 9 48 6 304 -4 355 -4 17 -11 53 -16 80
-29 142 -104 317 -195 456 -61 92 -247 279 -340 341 -147 98 -318 169 -490
204 -74 15 -333 26 -395 17z m-97 -578 c19 -8 47 -29 62 -47 26 -30 92 -157
139 -268 62 -143 116 -263 121 -268 8 -9 204 199 304 323 9 11 33 42 54 68 21
26 43 47 50 47 22 0 102 -96 119 -144 15 -41 17 -74 12 -234 -2 -103 -7 -205
-9 -227 -2 -22 -6 -107 -10 -190 -8 -193 -12 -230 -30 -265 -17 -32 -60 -51
-92 -39 -64 23 -82 122 -80 428 1 170 -2 236 -10 236 -7 0 -47 -34 -90 -75
-119 -116 -206 -188 -243 -204 -59 -24 -72 -10 -162 171 -96 195 -102 202
-114 127 -19 -123 -66 -333 -93 -415 -47 -140 -124 -293 -163 -323 -34 -25
-124 -59 -192 -71 -46 -9 -49 -21 37 185 152 368 217 661 213 965 -1 94 2 178
7 188 20 42 107 58 170 32z"/>
</g>
</svg>
